<svg id="Layer_1" xmlns="http://www.w3.org/2000/svg" viewBox="0 0 227 50.4"><style>.st0{fill:#8a1e41}.st1{fill:#fff}.st2{fill:#eba900}</style><path class="st0" d="M7.3 4.3l-1.6.5c-1 .4-2 .7-2.8 1-.7.4-.7.5-.8.9h-.2V4.6h.2v.2c0 .3.1.3.4.2.3 0 .8-.2 1.2-.4V3.1c-.2-.1-.6-.2-1-.4-.4-.1-.5 0-.6.3v.2h-.2V1.4h.2c.1.6.1.6.8.9L7.2 4l.1.3zM4.1 3.2v1.3l1.8-.6-1.8-.7zm3.1 6.3c0 .9-.2 1.7-.7 2.3-.4.4-1 .7-1.7.7-2 0-2.9-1.5-2.9-3.4V7h.2c0 .7.1.7 1 .7h2.8c.9 0 .9-.1 1-.7h.2v2.5zm-4.1-.8c-.7 0-.9.1-.9.7 0 1.3.9 2 2.3 2 1.7 0 2.3-.9 2.3-2.2 0-.3 0-.5-.1-.5H3.1zm1.5 8c-.5 0-.9-.4-.9-.9s.4-.9.9-.9.9.4.9.9-.4.9-.9.9zm2.6 3.5L3.3 22l3.9 1.7v1.5h-.3c-.1-.7-.1-.7-1-.7l-2.8.1c-.9 0-.9 0-1 .7h-.2V23h.2c.1.6.1.7 1 .6h3.1L2 21.8v-.2l4.1-1.8-2.1-.1H2.6c-.3 0-.4.2-.4.7h-.3v-1.9h.2c0 .4.1.6.4.6.2 0 .7.1 1.5.1l1.7.1c1.1.1 1.2 0 1.2-.7h.2v1.6zm.1 8.3l-1.5.6c-1 .4-2 .7-2.8 1.1-.7.3-.8.4-.8.9H2V29h.2v.2c.1.3.1.3.4.2.2-.1.7-.3 1.2-.5v-1.5c-.2-.1-.7-.2-1-.4-.4-.1-.5-.1-.6.3v.2H2v-1.8h.2c.1.5.1.6.8.9l4.2 1.6.1.3zm-3.2-1v1.3l1.8-.7-1.8-.6zM6.2 31c.8-.3.9-.3.7-1h.3l.7 2.2-.2.1c-.2-.5-.3-.6-1.1-.3l-2.6.7c-.8.3-1.5.4-2.3-.1-.3-.2-.5-.4-.7-.8l.2-.2c.4.4.8.5 1.3.5.4 0 .9-.2 1.4-.3l2.3-.8zm1.7 7c-1.5.9-3.1.5-3.9-.8-.9-1.3-.4-2.9.8-3.7 1.1-.7 2.9-.8 3.9.8.8 1.3.5 2.8-.8 3.7zm-2.3-3.7c-1.2.8-1.8 2-1.2 2.9.5.7 1.4.9 2.7 0 1.4-.9 1.8-2 1.3-2.9-.5-.7-1.6-.8-2.8 0zm6.1 3.2c.5.4.7.7.8 1.1.1.4.1.8-.2 1.1-.4.5-1.1.6-1.7.4 0 .3-.2.9-.2 1.3 0 .5-.1.9-.1 1.1 0 .3 0 .5.2.6l-.2.1-.3-.2c-.6-.6-.7-1-.7-1.5s.2-1 .3-1.5c0-.3 0-.4-.2-.5l-.2-.2-.7.8c-.6.7-.6.8-.1 1.2l-.1.2L6.5 40h.3c.5.4.6.4 1.2-.3l1.8-2.2c.6-.7.6-.8.1-1.2l.1-.2 1.7 1.4zm-2.2 1.7l.2.2c.2.2.5.3.7.3.4 0 .8-.2 1-.5.5-.6.3-1.2-.1-1.6-.3-.2-.3-.2-.5 0l-1.3 1.6zm7.3 1.8c-.1.1-.3.7-.5 1.1L16 42c.1-.4.1-.6.1-.8-.1-.2-.3-.4-.7-.6l-.4-.2c-.3-.2-.3-.2-.4.1l-.8 1.5.6.3c.6.3.6.3 1-.2l.2.1-.9 1.5-.2-.1c.2-.6.2-.6-.4-1l-.6-.3-.5 1.2c-.2.4-.3.6-.2.8.1.2.3.3.6.5.4.2.7.4.9.3.2-.1.5-.2.8-.5l.2.2c-.2.2-.7.9-.9 1l-3.4-2 .1-.2c.6.3.7.3 1.2-.5l1.4-2.5c.4-.8.4-.8-.1-1.2l.1-.2 3.1 1.8zm1.9.9l.2 4.3 3-3 1.4.6v.2c-.6-.2-.7-.2-1 .7l-1 2.7c-.3.9-.3.9.3 1.2l-.1.2-2.1-.8.1-.2c.6.2.6.2 1-.7l1.1-2.9-3.3 3.2-.3-.2-.1-4.4-.9 1.9c-.3.7-.4 1.1-.5 1.3-.1.3 0 .4.5.7v.2l-1.8-.7.1-.2c.4.1.6.1.7-.2.1-.2.4-.6.7-1.3l.7-1.5c.5-1 .4-1.1-.2-1.4l.1-.2 1.4.5zm8.5 5.7c-.2.5-.7.7-1.1.6-.5-.2-.7-.7-.6-1.1.2-.5.7-.7 1.1-.6.5.1.7.6.6 1.1zm3.8-4.2c.8-.3 1.7-.5 2.4-.2.5.2 1 .7 1.2 1.3.7 1.9-.4 3.2-2.2 3.9l-1.9.7.1-.1c.6-.3.6-.4.3-1.2l-1-2.6c-.3-.8-.4-.9-1-.7l-.1-.2 2.2-.9zm.7 4.1c.3.7.4.8 1 .6 1.2-.5 1.5-1.7 1-2.9-.7-1.6-1.7-1.8-2.9-1.3-.2.1-.4.2-.5.3 0 .1 0 .2.1.4l1.3 2.9zm5.2-6.8c.1.1.4.6.6 1.1l-.2.1c-.3-.3-.4-.5-.6-.5-.2-.1-.4 0-.9.2l-.4.2c-.3.1-.3.1-.2.4l.8 1.5.6-.3c.6-.3.6-.4.4-1l.2-.1.8 1.5v.2c-.4-.5-.4-.6-1-.2l-.6.3.6 1.2c.2.4.3.6.5.6s.4-.1.7-.3c.4-.2.7-.4.7-.6.1-.2 0-.5 0-.9l.2-.1c.1.3.3 1.1.4 1.3L36 47.1l-.1-.2c.6-.4.6-.4.2-1.2l-1.3-2.5c-.4-.8-.5-.8-1.1-.6l-.1-.2 3.3-1.7zm2.6-1.5l.1.2c-.5.4-.5.5-.1 1.2L41 43c.5.7.6.8 1.1.5l.1.2-1.9 1.2-.1-.2c.5-.4.5-.5.1-1.2L38.8 41c-.5-.7-.6-.8-1.1-.5l-.1-.2 1.9-1.1zm4.3-.2c.3.4.3 1-.1 1.3-.4.3-1 .2-1.3-.2-.3-.4-.2-1 .1-1.3.4-.2 1-.2 1.3.2zm5.5-5.1c.3.1.5.2.7.2 0 .5 0 1.2-.2 1.8-.6 1.7-2 2.5-3.5 2-1.8-.6-2.2-2.3-1.7-3.8.2-.7.5-1.2.7-1.4.3.1.7.2 1.3.3v.3c-1-.1-1.4.5-1.7 1.1-.3 1.1.2 2.1 1.6 2.5 1.2.4 2.6.3 3-1.1.1-.2.1-.4.1-.5 0-.2-.1-.3-.4-.4l-.6-.2c-.5-.2-.6-.2-.9.6l-.2-.1.5-2.2.2.1c-.1.4 0 .5.5.6l.6.2zm-3.7-4.3h.2c0 .6 0 .7.9.8l2.8.4c.5.1.7 0 .8-.1.1-.1.2-.4.2-.6.1-.4.2-1.3 0-1.5-.1-.2-.4-.3-.8-.5l.1-.2c.2.1 1 .4 1.3.5l-.6 4.4h-.2c0-.7 0-.8-.9-.9l-2.8-.4c-.9-.1-.9-.1-1.1.6h-.2l.3-2.5zm3-7.3c1.7.1 2.8 1.4 2.7 2.9-.1 1.6-1.4 2.6-2.8 2.5-1.3-.1-2.8-1.1-2.6-3-.1-1.4 1.1-2.5 2.7-2.4zm-.4 4.3c1.5.1 2.6-.5 2.7-1.6.1-.8-.6-1.5-2.1-1.6-1.7-.1-2.7.5-2.7 1.6-.1.8.7 1.5 2.1 1.6zm-2.4-6.7c0-.6.1-1 .3-1.3.2-.3.6-.5 1-.5.7 0 1.2.4 1.4 1.1.2-.1.8-.4 1.2-.7.4-.3.7-.5.9-.7.2-.2.3-.3.4-.6h.2v.3c-.1.9-.3 1.2-.7 1.5-.4.3-.9.5-1.3.8-.2.1-.3.2-.3.5v.3H50c.9 0 .9-.1 1-.7h.2v2.3H51c0-.6-.1-.7-1-.7h-2.8c-.9 0-.9.1-1 .7H46v-2.3zm2.7.6v-.3c0-.3 0-.6-.2-.8-.3-.3-.6-.4-1-.4-.8 0-1.1.6-1.1 1.1 0 .4 0 .4.3.4h2zm-2.7-6.2h.2c0 .6.1.7 1 .7h2.8c.9 0 .9-.1 1-.7h.2v2.3h-.2c0-.6-.1-.7-1-.7H47c-.9 0-.9.1-1 .7h-.2v-2.3zm-.1-3.2l1.5-.6c1-.4 2-.7 2.8-1 .7-.3.8-.4.8-.9h.2v2.1h-.2v-.2c0-.3-.1-.3-.4-.2-.2.1-.7.3-1.2.4v1.5c.2.1.7.3 1 .4.4.1.5.1.6-.3v-.2h.2v1.8h-.2c-.1-.5-.1-.6-.8-.9l-4.2-1.6-.1-.3zm3.2 1v-1.3l-1.8.6 1.8.7zm-3.1-5.6l3.9-1.8L45.8 3V1.4h.2c.1.7.1.7 1 .7l2.9-.1c.9 0 .9 0 1-.7h.2v2.3h-.2c-.1-.6-.1-.7-1-.6h-3.1L51 4.9v.2l-4.1 1.8L49 7h1.4c.3 0 .4-.2.4-.7h.2v1.9h-.2c0-.4-.1-.6-.4-.6-.2 0-.7-.1-1.5-.1l-1.7-.1c-1.1-.1-1.2 0-1.2.7h-.2V6.5zM43 1.8V28c0 9.6-16.5 13.7-16.5 13.7S10 37.6 10 28V1.8h33z"/><path class="st1" d="M10.9 10.9l.2-1.1h1.5v4.9h-1.2v-3.8h-.5zm6.1.1c0 .5-.3.9-.8 1.1.6.2 1 .6 1 1.3 0 1-1 1.5-1.8 1.5s-1.8-.5-1.8-1.5c0-.6.4-1.1 1-1.3-.4-.1-.8-.6-.8-1.1 0-.9.8-1.4 1.6-1.4S17 10 17 11zm-2.2 0c0 .3.2.5.5.5s.5-.2.5-.5-.2-.5-.5-.5-.5.2-.5.5zm0 2.2c0 .3.3.6.6.6s.6-.3.6-.6-.3-.6-.6-.6c-.4 0-.6.2-.6.6zm3-2.2V9.8h4l-2.7 4.8h-1.5l2.1-3.7h-1.9zm8 1.2c0 1.2-.6 2.5-2 2.5s-2-1.3-2-2.5.6-2.5 2-2.5c1.4-.1 2 1.2 2 2.5zm-2.8 0c0 .5.1 1.5.8 1.5.6 0 .8-1 .8-1.5s-.2-1.4-.8-1.4c-.7-.1-.8.9-.8 1.4zm-9.4 10.3s.5.4-.4 2.5c-.2.4-1 1.9 0 3 .7.8 1.8.5 1.8.5.1.4.1.6.1.6h-.8c-.7 0-.8.8-.8.8v3.3l.5.5h1.8c0-.8-1-1.2-1-1.2v-1.4h1.7c.9-.1 1.4-1.8 1.4-1.8l.6.1c0 .1-.9 1.8-.9 1.8l1.9 1.8v.5h2.1c.1-.5-.9-1-.9-1l-1.3-1.4c-.2-.2 0-.4.2-.4.3-.1.5-.1.7-.3.3-.1 1.5-.9 1-2.3s-2.2-.9-2.2-1c0-.2.9-2.2.9-2.2l-.7-.9.9.5 2.3-.4c.2 1.9 1.1 1.4 1.1 1.4v-1.4s0-.9-.9-1.2c-1-.3-1.7-.1-2.1-.2-.3-.1-.2-.3-.2-.3h1.3l1.2-1 .7-.1c1.2-.2.8-1.1.8-1.1h-1.7c-.6 0-2.3 1.2-2.3 1.2s-.2-1.4 1-1.8c1.3-.5 1-.9 1-.9l-1.2.4s-.1-.1.1-.4c.1-.2 1.1-.5 1.1-.5.8-.3.5-.9.5-.9l-1.3.1c-.3-.3-.3-.3-.7-.4-.4-.1-1.1.5-1.1.3.1-.2.1-.8.2-1.4.1-.6-1.7 2-1.7 2-2.3 4.4-1.7 7.4-1.7 7.4-1.5.7-1.5 2.4-1.5 1.9 0-2.5.8-2.3.8-3.9s-1.7-1.4-1.7-1.4c-.7 0-.9.4-.9.4s.2 0 .3.2z"/><path class="st0" d="M20.2 17.8h1l-.2-.3z"/><path class="st1" d="M26.5 33.9s-1.3.1-2.5-1c-1.1-1.1-1.1-2.5-1.1-2.5v-2.6s-.3-.1-.3-.4c0-.4.4-.3.4-.3h.8c0 .9.5.8.5.8.6 0 .5-.8.5-.8h3.4s-.1.8.5.8c0 0 .5.1.5-.8h.8s.4-.1.4.3c0 .3-.3.4-.3.4v2.6s0 1.3-1.1 2.5c-1.2 1.1-2.5 1-2.5 1z"/><path class="st1" d="M39.4 22.5s-.5.4.4 2.5c.2.4 1 1.9 0 3-.7.8-1.8.5-1.8.5-.1.4-.1.6-.1.6h.8c.7 0 .8.8.8.8v3.3l-.5.5h-1.8c0-.8 1-1.2 1-1.2v-1.4h-1.7c-.9-.1-1.4-1.8-1.4-1.8l-.7.1c0 .1.9 1.8.9 1.8L33.4 33v.5h-2.1c-.1-.5.9-1 .9-1l1.3-1.4c.2-.2.1-.4-.2-.4-.3-.1-.5-.1-.7-.3-.3-.1-1.5-.9-1-2.3s2.2-.9 2.2-1c0-.2-.9-2.2-.9-2.2l.7-1.1-.9.5-2.3-.4c-.2 1.9-1.1 1.4-1.1 1.4v-1.4s0-.9.9-1.2c1-.3 1.7-.1 2.1-.2.3-.1.2-.3.2-.3h-1.3l-1.2-1-.7-.1c-1.2-.2-.8-1.1-.8-1.1h1.7c.6 0 2.3 1.2 2.3 1.2s.2-1.4-1-1.8c-1.3-.5-1-.9-1-.9l1.2.4s.1-.1-.1-.4c-.1-.2-1.1-.5-1.1-.5-.8-.3-.5-.9-.5-.9l1.3.1c.3-.3.3-.3.7-.4.4-.1 1.1.5 1.1.3-.1-.2-.1-.8-.2-1.4-.1-.6 1.7 2 1.7 2 2.3 4.4 1.7 7.4 1.7 7.4 1.5.7 1.5 2.4 1.5 1.9 0-2.5-.8-2.3-.8-3.9s1.7-1.4 1.7-1.4c.7 0 .9.4.9.4l-.2.4z"/><path class="st0" d="M32.8 17.8h-1l.2-.3z"/><path class="st1" d="M26.7 24.1v-6.6c.1-.1.2-.2.2-.3 0-.2-.1-.3-.3-.3-.2 0-.3.1-.3.3 0 .1.1.2.2.3v6.6l-2.2 2.2v.7h.3v-.6l2-2.1 2 2.1v.6h.3v-.7l-2.2-2.2z"/><path class="st2" d="M26.5 1.8v2.1l2.4-2.1zm14.2 12.8H43v-2.1zM31.3 1.8l-4.8 4.3v2.1l7.1-6.4zm4.7 0l-9.5 8.6v2.1L38.4 1.8zm4.7 0L26.5 14.6h2.4L43 1.8zm-9.4 12.8h2.3L43 6.1V3.9zm4.7 0h2.4l4.6-4.2V8.2z"/><path d="M62.8 29.6v-1.4c4.2-.3 4.5-.6 4.5-5.2V8.4c0-4.7-.4-4.9-4.2-5.2V1.7h13.5v1.4c-4.2.3-4.5.5-4.5 5.2V23c0 2.4.3 3.7 1.2 4.1.8.4 2.1.5 4.4.5 2.4 0 4.3-.4 5.3-1.6.7-.7 1.5-2.2 2.1-4.2l1.6.2c-.3 1.4-1.2 6.2-1.6 7.4H62.8zM87 16.3C87 5.8 95 1 101.4 1c8.7 0 14.3 6.3 14.3 14.4 0 9.8-7.2 15-14.3 15C92.1 30.3 87 23 87 16.3zm14.9 12.2c4.7 0 8.4-3.1 8.4-11.9 0-7.1-3.4-13.7-9.4-13.7-4.9 0-8.4 4.3-8.4 11.9-.1 8.1 3.4 13.7 9.4 13.7zm19.8 1.1v-1.4c4.4-.3 4.7-.6 4.7-5.2v-3.8c0-1.2-.1-1.6-.9-2.9-1.3-2.3-3-5.2-5.7-9.9-1.6-2.7-2-2.8-4.7-3.1V1.7h12.1v1.4l-1.9.3c-1.4.2-1.5.6-.8 1.8.3.6 4.2 7.5 5.6 9.9 1.9-3.3 3.8-7.5 4.7-9.5.8-1.7.7-2-1-2.2l-1.8-.2V1.7h10.7v1.4c-3.3.3-3.5.7-5.1 3.2-1.6 2.4-3.5 5.4-5.5 9-.9 1.7-1 2.1-1 3.1V23c0 4.6.4 4.9 4.8 5.2v1.4h-14.2zm19.4-13.3c0-10.5 8-15.3 14.4-15.3 8.7 0 14.3 6.3 14.3 14.4 0 9.8-7.2 15-14.3 15-9.4-.1-14.4-7.4-14.4-14.1zM156 28.5c4.7 0 8.4-3.1 8.4-11.9 0-7.1-3.4-13.7-9.4-13.7-4.9 0-8.4 4.3-8.4 11.9-.1 8.1 3.4 13.7 9.4 13.7zm15.9 1.1v-1.4c4.2-.3 4.5-.6 4.5-5.2V8.4c0-4.7-.4-4.9-4.2-5.2V1.7h13.5v1.4c-4.2.3-4.5.5-4.5 5.2V23c0 2.4.3 3.7 1.2 4.1.8.4 2.1.5 4.4.5 2.4 0 4.3-.4 5.3-1.6.7-.7 1.5-2.2 2.1-4.2l1.6.2c-.3 1.4-1.2 6.2-1.6 7.4h-22.3zm41.5-1.5l1.1-.1c1.7-.2 2.2-.7 1-3.6l-2.1-5.1H205c-.4 1-1.5 3.9-2.1 5.8-.7 2.1-.2 2.7 1.6 2.9l1.4.1v1.4h-10.6v-1.4c2.7-.3 3.7-.6 5.5-4.9l9-21.9 1.5-.4 9 23c1.5 3.7 2.6 3.9 5.3 4.1v1.4h-12.2v-1.3zm-7.6-10.9h7l-3.5-9.5h-.1l-3.4 9.5zm-143 18h2v5.7c0 .6.1 1.1.2 1.4.2.5.7.8 1.5.8s1.3-.3 1.5-.8c.2-.3.2-.8.2-1.4v-5.7h2v5.7c0 1-.2 1.8-.5 2.3-.6 1-1.7 1.5-3.3 1.5-1.6 0-2.7-.5-3.3-1.5-.3-.5-.5-1.3-.5-2.3v-5.7zm11 0h2l3.7 6.5v-6.5h1.8v9.3h-1.9l-3.8-6.6v6.6h-1.8v-9.3zm12.8 9.3h-1.9v-9.3h1.9v9.3zm8.9-9.3h2l-3.2 9.3h-1.8l-3.1-9.3h2.1l2 7 2-7zm11.1 1.7h-4.9v2h4.5v1.6h-4.5v2.4h5.1v1.7h-7v-9.3h6.8v1.6zm9.2-1.4c.3.1.6.4.9.6.2.2.4.5.5.8.1.3.2.6.2 1s-.1.9-.3 1.3c-.2.4-.6.7-1.1.9.4.2.7.4.9.7.2.3.3.8.3 1.4v.6c0 .4 0 .7.1.9.1.2.2.4.4.5v.2h-2.1c-.1-.2-.1-.4-.1-.5-.1-.3-.1-.5-.1-.8v-.9c0-.6-.1-1-.3-1.2-.2-.2-.6-.3-1.1-.3h-1.9v3.6h-1.9V35h4.4c.3.3.8.3 1.2.5zm-4 1.3v2.5h2.1c.4 0 .7-.1.9-.2.4-.2.6-.5.6-1 0-.6-.2-.9-.5-1.1-.2-.1-.5-.2-.9-.2h-2.2zm9.7 4.8c.1.4.2.7.4.9.3.4.9.6 1.6.6.5 0 .8-.1 1.1-.2.6-.2.8-.5.8-1.1 0-.3-.1-.5-.4-.7-.3-.2-.7-.3-1.3-.4l-1-.2c-1-.2-1.7-.5-2-.7-.6-.4-.9-1.1-.9-2 0-.8.3-1.5.9-2.1.6-.5 1.5-.8 2.7-.8 1 0 1.8.3 2.5.8S127 37 127 38h-1.9c0-.6-.3-1-.7-1.2-.3-.2-.7-.2-1.2-.2s-.9.1-1.2.3c-.3.2-.5.5-.5.8 0 .3.1.6.4.7.2.1.6.2 1.2.4l1.6.4c.7.2 1.2.4 1.6.7.6.4.8 1.1.8 1.9 0 .8-.3 1.5-1 2.1-.7.6-1.6.8-2.8.8-1.2 0-2.2-.3-2.9-.8-.7-.6-1-1.3-1-2.3h2.1zm10.7 2.9h-1.9v-9.3h1.9v9.3zm10.5-9.3v1.6h-2.8v7.6H138v-7.6h-2.8v-1.6h7.5zm7.3 0h2.2l-3.1 5.8v3.5h-1.9V41l-3.2-5.8h2.3l1.9 4 1.8-4zm10.3 1c.7-.8 1.7-1.1 2.8-1.1 1.5 0 2.7.5 3.4 1.5.4.6.6 1.1.6 1.7h-1.9c-.1-.4-.3-.8-.5-1-.3-.4-.9-.6-1.5-.6-.7 0-1.2.3-1.6.9-.4.6-.6 1.4-.6 2.4s.2 1.8.6 2.3c.4.5 1 .8 1.6.8.7 0 1.2-.2 1.5-.7.2-.2.3-.6.5-1.1h1.9c-.2 1-.6 1.8-1.3 2.5-.7.6-1.6.9-2.6.9-1.3 0-2.4-.4-3.1-1.3-.8-.9-1.1-2-1.1-3.5 0-1.6.5-2.8 1.3-3.7zm9.6 8.3v-9.3h1.9v3.5h3.6v-3.5h1.9v9.3h-1.9v-4.1h-3.6v4.1h-1.9zm13 0H181v-9.3h1.9v9.3zm4.3-8.3c.7-.8 1.7-1.1 2.8-1.1 1.5 0 2.7.5 3.4 1.5.4.6.6 1.1.6 1.7h-1.9c-.1-.4-.3-.8-.5-1-.3-.4-.9-.6-1.5-.6-.7 0-1.2.3-1.6.9-.4.6-.6 1.4-.6 2.4s.2 1.8.6 2.3c.4.5 1 .8 1.6.8.7 0 1.2-.2 1.5-.7.2-.2.4-.6.5-1.1h1.9c-.2 1-.6 1.8-1.3 2.5-.7.6-1.6.9-2.6.9-1.3 0-2.4-.4-3.1-1.3-.8-.9-1.1-2-1.1-3.5 0-1.6.4-2.8 1.3-3.7zm11.4-1h2.2l3.3 9.3H202l-.6-1.9H198l-.6 1.9h-2l3.2-9.3zm-.1 5.8h2.4l-1.2-3.6-1.2 3.6zm13.7-2.9c-.1-.6-.5-1.1-1.1-1.3-.3-.1-.7-.2-1.1-.2-.7 0-1.4.3-1.8.8-.5.6-.7 1.4-.7 2.5s.3 1.9.8 2.4 1.1.7 1.8.7 1.2-.2 1.6-.6c.4-.4.7-.9.8-1.5h-2.1v-1.5h3.9v5H213l-.2-1.2c-.4.4-.7.7-1 .9-.5.3-1.1.5-1.9.5-1.2 0-2.2-.4-3-1.3-.8-.9-1.2-2-1.2-3.5s.4-2.7 1.2-3.6c.8-.9 1.9-1.4 3.3-1.4 1.2 0 2.1.3 2.8.9.7.6 1.1 1.3 1.2 2.2h-2zm12.3 5.6c-.7.7-1.7 1.1-3 1.1s-2.3-.4-3-1.1c-.9-.9-1.4-2.2-1.4-3.8 0-1.7.5-3 1.4-3.8.7-.7 1.7-1.1 3-1.1s2.3.4 3 1.1c.9.8 1.4 2.1 1.4 3.8 0 1.6-.5 2.9-1.4 3.8zm-1.3-1.4c.4-.6.7-1.4.7-2.4s-.2-1.8-.7-2.4c-.5-.6-1.1-.8-1.8-.8-.8 0-1.4.3-1.8.8-.5.6-.7 1.4-.7 2.4s.2 1.8.7 2.4c.5.6 1.1.8 1.8.8.8 0 1.4-.3 1.8-.8z"/></svg>