<?xml version="1.0" encoding="utf-8"?>
<!-- Generator: Adobe Illustrator 22.0.1, SVG Export Plug-In . SVG Version: 6.00 Build 0)  -->
<svg version="1.1" id="Layer_1" xmlns="http://www.w3.org/2000/svg" xmlns:xlink="http://www.w3.org/1999/xlink" x="0px" y="0px"
	 viewBox="0 0 40 40" style="enable-background:new 0 0 40 40;" xml:space="preserve">
<style type="text/css">
	.st0{fill:#FFFFFF;}
</style>
<path class="st0" d="M38.1,34.8L26,22.7c1.6-2.3,2.4-4.8,2.4-7.4C28.4,8,22.4,2,15.1,2S1.7,7.9,1.7,15.2s6,13.3,13.3,13.3
	c2.8,0,5.3-0.8,7.8-2.6l12.1,12.1L38.1,34.8z M15,24.3c-5.1,0-9.1-4.1-9.1-9.1c0-5.1,4.1-9.1,9.1-9.1c5.1,0,9.1,4.1,9.1,9.1
	C24.1,20.3,20.1,24.3,15,24.3z"/>
</svg>
