<?xml version="1.0" encoding="utf-8"?>
<!-- Generator: Adobe Illustrator 22.0.1, SVG Export Plug-In . SVG Version: 6.00 Build 0)  -->
<svg version="1.1" id="Layer_1" xmlns="http://www.w3.org/2000/svg" xmlns:xlink="http://www.w3.org/1999/xlink" x="0px" y="0px"
	 viewBox="0 0 227 50.4" style="enable-background:new 0 0 227 50.4;" xml:space="preserve">
<style type="text/css">
	.st0{fill:#8A1E41;}
	.st1{fill:#FFFFFF;}
	.st2{fill:#EBA900;}
</style>
<g>
	<path class="st0" d="M7.3,4.3L5.7,4.8c-1,0.4-2,0.7-2.8,1C2.2,6.2,2.2,6.3,2.1,6.7H1.9V4.6h0.2l0,0.2c0,0.3,0.1,0.3,0.4,0.2
		C2.8,5,3.3,4.8,3.7,4.6V3.1C3.5,3,3.1,2.9,2.7,2.7C2.3,2.6,2.2,2.7,2.1,3l0,0.2H1.9V1.4h0.2C2.2,2,2.2,2,2.9,2.3L7.2,4L7.3,4.3z
		 M4.1,3.2v1.3l1.8-0.6v0L4.1,3.2z"/>
	<path class="st0" d="M7.2,9.5c0,0.9-0.2,1.7-0.7,2.3c-0.4,0.4-1,0.7-1.7,0.7c-2,0-2.9-1.5-2.9-3.4V7h0.2c0,0.7,0.1,0.7,1,0.7h2.8
		c0.9,0,0.9-0.1,1-0.7h0.2V9.5z M3.1,8.7c-0.7,0-0.9,0.1-0.9,0.7c0,1.3,0.9,2,2.3,2c1.7,0,2.3-0.9,2.3-2.2c0-0.3,0-0.5-0.1-0.5
		c0,0-0.2,0-0.4,0H3.1z"/>
	<path class="st0" d="M4.6,16.7c-0.5,0-0.9-0.4-0.9-0.9c0-0.5,0.4-0.9,0.9-0.9c0.5,0,0.9,0.4,0.9,0.9C5.5,16.3,5.1,16.7,4.6,16.7z"
		/>
	<path class="st0" d="M7.2,20.2L3.3,22l3.9,1.7v1.5H6.9c-0.1-0.7-0.1-0.7-1-0.7l-2.8,0.1c-0.9,0-0.9,0-1,0.7H1.9v-2.3h0.2
		c0.1,0.6,0.1,0.7,1,0.6l3.1,0v0L2,21.8v-0.2l4.1-1.8v0L4,19.7c-0.7,0-1.2,0-1.4,0c-0.3,0-0.4,0.2-0.4,0.7H1.9v-1.9h0.2
		c0,0.4,0.1,0.6,0.4,0.6c0.2,0,0.7,0.1,1.5,0.1l1.7,0.1c1.1,0.1,1.2,0,1.2-0.7h0.2V20.2z"/>
	<path class="st0" d="M7.3,28.5l-1.5,0.6c-1,0.4-2,0.7-2.8,1.1c-0.7,0.3-0.8,0.4-0.8,0.9l-0.2,0l0-2.1l0.2,0l0,0.2
		c0.1,0.3,0.1,0.3,0.4,0.2c0.2-0.1,0.7-0.3,1.2-0.5l0-1.5c-0.2-0.1-0.7-0.2-1-0.4c-0.4-0.1-0.5-0.1-0.6,0.3l0,0.2l-0.2,0l0-1.8
		l0.2,0c0.1,0.5,0.1,0.6,0.8,0.9l4.2,1.6L7.3,28.5z M4.1,27.5l0,1.3l1.8-0.7v0L4.1,27.5z"/>
	<path class="st0" d="M6.2,31c0.8-0.3,0.9-0.3,0.7-1L7.2,30l0.7,2.2l-0.2,0.1c-0.2-0.5-0.3-0.6-1.1-0.3L4,32.7
		c-0.8,0.3-1.5,0.4-2.3-0.1c-0.3-0.2-0.5-0.4-0.7-0.8l0.2-0.2c0.4,0.4,0.8,0.5,1.3,0.5c0.4,0,0.9-0.2,1.4-0.3L6.2,31z"/>
	<path class="st0" d="M7.9,38c-1.5,0.9-3.1,0.5-3.9-0.8c-0.9-1.3-0.4-2.9,0.8-3.7c1.1-0.7,2.9-0.8,3.9,0.8C9.5,35.6,9.2,37.1,7.9,38
		z M5.6,34.3c-1.2,0.8-1.8,2-1.2,2.9c0.5,0.7,1.4,0.9,2.7,0c1.4-0.9,1.8-2,1.3-2.9C7.9,33.6,6.8,33.5,5.6,34.3z"/>
	<path class="st0" d="M11.7,37.5c0.5,0.4,0.7,0.7,0.8,1.1c0.1,0.4,0.1,0.8-0.2,1.1c-0.4,0.5-1.1,0.6-1.7,0.4c0,0.3-0.2,0.9-0.2,1.3
		c0,0.5-0.1,0.9-0.1,1.1c0,0.3,0,0.5,0.2,0.6l-0.2,0.1l-0.3-0.2c-0.6-0.6-0.7-1-0.7-1.5c0-0.5,0.2-1,0.3-1.5c0-0.3,0-0.4-0.2-0.5
		l-0.2-0.2l-0.7,0.8c-0.6,0.7-0.6,0.8-0.1,1.2l-0.1,0.2l-1.8-1.5L6.8,40c0.5,0.4,0.6,0.4,1.2-0.3l1.8-2.2c0.6-0.7,0.6-0.8,0.1-1.2
		l0.1-0.2L11.7,37.5z M9.5,39.2l0.2,0.2c0.2,0.2,0.5,0.3,0.7,0.3c0.4,0,0.8-0.2,1-0.5c0.5-0.6,0.3-1.2-0.1-1.6
		c-0.3-0.2-0.3-0.2-0.5,0L9.5,39.2z"/>
	<path class="st0" d="M16.8,41c-0.1,0.1-0.3,0.7-0.5,1.1L16,42c0.1-0.4,0.1-0.6,0.1-0.8c-0.1-0.2-0.3-0.4-0.7-0.6l-0.4-0.2
		c-0.3-0.2-0.3-0.2-0.4,0.1L13.8,42l0.6,0.3c0.6,0.3,0.6,0.3,1-0.2l0.2,0.1l-0.9,1.5l-0.2-0.1c0.2-0.6,0.2-0.6-0.4-1l-0.6-0.3
		L13,43.5c-0.2,0.4-0.3,0.6-0.2,0.8c0.1,0.2,0.3,0.3,0.6,0.5c0.4,0.2,0.7,0.4,0.9,0.3c0.2-0.1,0.5-0.2,0.8-0.5l0.2,0.2
		c-0.2,0.2-0.7,0.9-0.9,1l-3.4-2l0.1-0.2c0.6,0.3,0.7,0.3,1.2-0.5l1.4-2.5c0.4-0.8,0.4-0.8-0.1-1.2l0.1-0.2L16.8,41z"/>
	<path class="st0" d="M18.7,41.9l0.2,4.3l3-3l1.4,0.6L23.3,44c-0.6-0.2-0.7-0.2-1,0.7l-1,2.7c-0.3,0.9-0.3,0.9,0.3,1.2l-0.1,0.2
		l-2.1-0.8l0.1-0.2c0.6,0.2,0.6,0.2,1-0.7l1.1-2.9l0,0l-3.3,3.2L18,47.2l-0.1-4.4l0,0L17,44.7c-0.3,0.7-0.4,1.1-0.5,1.3
		c-0.1,0.3,0,0.4,0.5,0.7L17,46.9l-1.8-0.7l0.1-0.2c0.4,0.1,0.6,0.1,0.7-0.2c0.1-0.2,0.4-0.6,0.7-1.3l0.7-1.5c0.5-1,0.4-1.1-0.2-1.4
		l0.1-0.2L18.7,41.9z"/>
	<path class="st0" d="M27.2,47.6c-0.2,0.5-0.7,0.7-1.1,0.6c-0.5-0.2-0.7-0.7-0.6-1.1c0.2-0.5,0.7-0.7,1.1-0.6
		C27.1,46.6,27.3,47.1,27.2,47.6z"/>
	<path class="st0" d="M31,43.4c0.8-0.3,1.7-0.5,2.4-0.2c0.5,0.2,1,0.7,1.2,1.3c0.7,1.9-0.4,3.2-2.2,3.9l-1.9,0.7L30.6,49
		c0.6-0.3,0.6-0.4,0.3-1.2l-1-2.6c-0.3-0.8-0.4-0.9-1-0.7l-0.1-0.2L31,43.4z M31.7,47.5c0.3,0.7,0.4,0.8,1,0.6
		c1.2-0.5,1.5-1.7,1-2.9c-0.7-1.6-1.7-1.8-2.9-1.3c-0.2,0.1-0.4,0.2-0.5,0.3c0,0.1,0,0.2,0.1,0.4L31.7,47.5z"/>
	<path class="st0" d="M36.9,40.7c0.1,0.1,0.4,0.6,0.6,1.1l-0.2,0.1c-0.3-0.3-0.4-0.5-0.6-0.5c-0.2-0.1-0.4,0-0.9,0.2l-0.4,0.2
		c-0.3,0.1-0.3,0.1-0.2,0.4l0.8,1.5l0.6-0.3c0.6-0.3,0.6-0.4,0.4-1l0.2-0.1l0.8,1.5L38,44c-0.4-0.5-0.4-0.6-1-0.2l-0.6,0.3l0.6,1.2
		c0.2,0.4,0.3,0.6,0.5,0.6c0.2,0,0.4-0.1,0.7-0.3c0.4-0.2,0.7-0.4,0.7-0.6c0.1-0.2,0-0.5,0-0.9l0.2-0.1c0.1,0.3,0.3,1.1,0.4,1.3
		L36,47.1l-0.1-0.2c0.6-0.4,0.6-0.4,0.2-1.2l-1.3-2.5c-0.4-0.8-0.5-0.8-1.1-0.6l-0.1-0.2L36.9,40.7z"/>
	<path class="st0" d="M39.5,39.2l0.1,0.2c-0.5,0.4-0.5,0.5-0.1,1.2L41,43c0.5,0.7,0.6,0.8,1.1,0.5l0.1,0.2l-1.9,1.2l-0.1-0.2
		c0.5-0.4,0.5-0.5,0.1-1.2L38.8,41c-0.5-0.7-0.6-0.8-1.1-0.5l-0.1-0.2L39.5,39.2z"/>
	<path class="st0" d="M43.8,39c0.3,0.4,0.3,1-0.1,1.3c-0.4,0.3-1,0.2-1.3-0.2c-0.3-0.4-0.2-1,0.1-1.3C42.9,38.6,43.5,38.6,43.8,39z"
		/>
	<g>
		<path class="st0" d="M49.3,33.9c0.3,0.1,0.5,0.2,0.7,0.2c0,0.5,0,1.2-0.2,1.8c-0.6,1.7-2,2.5-3.5,2c-1.8-0.6-2.2-2.3-1.7-3.8
			c0.2-0.7,0.5-1.2,0.7-1.4c0.3,0.1,0.7,0.2,1.3,0.3l0,0.3c-1-0.1-1.4,0.5-1.7,1.1c-0.3,1.1,0.2,2.1,1.6,2.5c1.2,0.4,2.6,0.3,3-1.1
			c0.1-0.2,0.1-0.4,0.1-0.5c0-0.2-0.1-0.3-0.4-0.4l-0.6-0.2c-0.5-0.2-0.6-0.2-0.9,0.6l-0.2-0.1L48,33l0.2,0.1
			c-0.1,0.4,0,0.5,0.5,0.6L49.3,33.9z"/>
		<path class="st0" d="M45.6,29.6l0.2,0c0,0.6,0,0.7,0.9,0.8l2.8,0.4c0.5,0.1,0.7,0,0.8-0.1c0.1-0.1,0.2-0.4,0.2-0.6
			c0.1-0.4,0.2-1.3,0-1.5c-0.1-0.2-0.4-0.3-0.8-0.5l0.1-0.2c0.2,0.1,1,0.4,1.3,0.5l-0.6,4.4l-0.2,0c0-0.7,0-0.8-0.9-0.9l-2.8-0.4
			c-0.9-0.1-0.9-0.1-1.1,0.6l-0.2,0L45.6,29.6z"/>
		<path class="st0" d="M48.6,22.3c1.7,0.1,2.8,1.4,2.7,2.9c-0.1,1.6-1.4,2.6-2.8,2.5c-1.3-0.1-2.8-1.1-2.6-3
			C45.8,23.3,47,22.2,48.6,22.3z M48.2,26.6c1.5,0.1,2.6-0.5,2.7-1.6c0.1-0.8-0.6-1.5-2.1-1.6c-1.7-0.1-2.7,0.5-2.7,1.6
			C46,25.8,46.8,26.5,48.2,26.6z"/>
		<path class="st0" d="M45.8,19.9c0-0.6,0.1-1,0.3-1.3c0.2-0.3,0.6-0.5,1-0.5c0.7,0,1.2,0.4,1.4,1.1c0.2-0.1,0.8-0.4,1.2-0.7
			c0.4-0.3,0.7-0.5,0.9-0.7c0.2-0.2,0.3-0.3,0.4-0.6l0.2,0l0,0.3c-0.1,0.9-0.3,1.2-0.7,1.5c-0.4,0.3-0.9,0.5-1.3,0.8
			c-0.2,0.1-0.3,0.2-0.3,0.5v0.3h1.1c0.9,0,0.9-0.1,1-0.7h0.2v2.3h-0.2c0-0.6-0.1-0.7-1-0.7h-2.8c-0.9,0-0.9,0.1-1,0.7h-0.2V19.9z
			 M48.5,20.5v-0.3c0-0.3,0-0.6-0.2-0.8c-0.3-0.3-0.6-0.4-1-0.4c-0.8,0-1.1,0.6-1.1,1.1c0,0.4,0,0.4,0.3,0.4H48.5z"/>
		<path class="st0" d="M45.8,14.3h0.2c0,0.6,0.1,0.7,1,0.7h2.8c0.9,0,0.9-0.1,1-0.7h0.2v2.3h-0.2c0-0.6-0.1-0.7-1-0.7h-2.8
			c-0.9,0-0.9,0.1-1,0.7h-0.2V14.3z"/>
		<path class="st0" d="M45.7,11.1l1.5-0.6c1-0.4,2-0.7,2.8-1c0.7-0.3,0.8-0.4,0.8-0.9h0.2v2.1h-0.2l0-0.2c0-0.3-0.1-0.3-0.4-0.2
			c-0.2,0.1-0.7,0.3-1.2,0.4v1.5c0.2,0.1,0.7,0.3,1,0.4c0.4,0.1,0.5,0.1,0.6-0.3l0-0.2h0.2v1.8h-0.2c-0.1-0.5-0.1-0.6-0.8-0.9
			l-4.2-1.6L45.7,11.1z M48.9,12.1v-1.3l-1.8,0.6v0L48.9,12.1z"/>
		<path class="st0" d="M45.8,6.5l3.9-1.8L45.8,3V1.4h0.2c0.1,0.7,0.1,0.7,1,0.7L49.9,2c0.9,0,0.9,0,1-0.7h0.2v2.3h-0.2
			c-0.1-0.6-0.1-0.7-1-0.6l-3.1,0v0L51,4.9v0.2l-4.1,1.8v0L49,7c0.7,0,1.2,0,1.4,0c0.3,0,0.4-0.2,0.4-0.7h0.2v1.9h-0.2
			c0-0.4-0.1-0.6-0.4-0.6c-0.2,0-0.7-0.1-1.5-0.1l-1.7-0.1c-1.1-0.1-1.2,0-1.2,0.7h-0.2V6.5z"/>
	</g>
</g>
<path d="M26.6,17.1"/>
<g>
	<path class="st0" d="M43,1.8V28c0,9.6-16.5,13.7-16.5,13.7S10,37.6,10,28V1.8H43z"/>
</g>
<path class="st1" d="M10.9,10.9l0.2-1.1h1.5v4.9h-1.2v-3.8H10.9z"/>
<path class="st1" d="M17,11c0,0.5-0.3,0.9-0.8,1.1v0c0.6,0.2,1,0.6,1,1.3c0,1-1,1.5-1.8,1.5c-0.8,0-1.8-0.5-1.8-1.5
	c0-0.6,0.4-1.1,1-1.3v0c-0.4-0.1-0.8-0.6-0.8-1.1c0-0.9,0.8-1.4,1.6-1.4C16.2,9.6,17,10,17,11z M14.8,11c0,0.3,0.2,0.5,0.5,0.5
	s0.5-0.2,0.5-0.5c0-0.3-0.2-0.5-0.5-0.5S14.8,10.7,14.8,11z M14.8,13.2c0,0.3,0.3,0.6,0.6,0.6c0.3,0,0.6-0.3,0.6-0.6
	c0-0.3-0.3-0.6-0.6-0.6C15,12.6,14.8,12.8,14.8,13.2z"/>
<path class="st1" d="M17.8,11V9.8h4l-2.7,4.8h-1.5l2.1-3.7H17.8z"/>
<path class="st1" d="M25.8,12.2c0,1.2-0.6,2.5-2,2.5c-1.4,0-2-1.3-2-2.5s0.6-2.5,2-2.5C25.2,9.6,25.8,10.9,25.8,12.2z M23,12.2
	c0,0.5,0.1,1.5,0.8,1.5c0.6,0,0.8-1,0.8-1.5c0-0.5-0.2-1.4-0.8-1.4C23.1,10.7,23,11.7,23,12.2z"/>
<g>
	<g>
		<path class="st1" d="M13.6,22.5c0,0,0.5,0.4-0.4,2.5c-0.2,0.4-1,1.9,0,3c0.7,0.8,1.8,0.5,1.8,0.5c0.1,0.4,0.1,0.6,0.1,0.6h-0.8
			c-0.7,0-0.8,0.8-0.8,0.8v3.3l0.5,0.5h1.8c0-0.8-1-1.2-1-1.2v-1.4h1.7c0.9-0.1,1.4-1.8,1.4-1.8l0.6,0.1c0,0.1-0.9,1.8-0.9,1.8
			l1.9,1.8v0.5h2.1c0.1-0.5-0.9-1-0.9-1l-1.3-1.4c-0.2-0.2,0-0.4,0.2-0.4c0.3-0.1,0.5-0.1,0.7-0.3c0.3-0.1,1.5-0.9,1-2.3
			c-0.5-1.4-2.2-0.9-2.2-1c0-0.2,0.9-2.2,0.9-2.2L19.3,24l0.9,0.5l2.3-0.4c0.2,1.9,1.1,1.4,1.1,1.4v-1.4c0,0,0-0.9-0.9-1.2
			c-1-0.3-1.7-0.1-2.1-0.2c-0.3-0.1-0.2-0.3-0.2-0.3l1.3,0l1.2-1l0.7-0.1c1.2-0.2,0.8-1.1,0.8-1.1s-1.1,0-1.7,0
			c-0.6,0-2.3,1.2-2.3,1.2s-0.2-1.4,1-1.8c1.3-0.5,1-0.9,1-0.9l-1.2,0.4c0,0-0.1-0.1,0.1-0.4c0.1-0.2,1.1-0.5,1.1-0.5
			c0.8-0.3,0.5-0.9,0.5-0.9l-1.3,0.1c-0.3-0.3-0.3-0.3-0.7-0.4c-0.4-0.1-1.1,0.5-1.1,0.3c0.1-0.2,0.1-0.8,0.2-1.4
			c0.1-0.6-1.7,2-1.7,2c-2.3,4.4-1.7,7.4-1.7,7.4c-1.5,0.7-1.5,2.4-1.5,1.9c0-2.5,0.8-2.3,0.8-3.9c0-1.6-1.7-1.4-1.7-1.4
			c-0.7,0-0.9,0.4-0.9,0.4S13.5,22.3,13.6,22.5z"/>
		<polygon class="st0" points="20.2,17.8 21.2,17.8 21,17.5 		"/>
	</g>
	<path class="st1" d="M26.5,33.9c0,0-1.3,0.1-2.5-1c-1.1-1.1-1.1-2.5-1.1-2.5v-2.6c0,0-0.3-0.1-0.3-0.4c0-0.4,0.4-0.3,0.4-0.3h0.8
		c0,0.9,0.5,0.8,0.5,0.8c0.6,0,0.5-0.8,0.5-0.8h1.7h0h1.7c0,0-0.1,0.8,0.5,0.8c0,0,0.5,0.1,0.5-0.8H30c0,0,0.4-0.1,0.4,0.3
		c0,0.3-0.3,0.4-0.3,0.4v2.6c0,0,0,1.3-1.1,2.5C27.8,34,26.5,33.9,26.5,33.9L26.5,33.9z"/>
	<g>
		<path class="st1" d="M39.4,22.5c0,0-0.5,0.4,0.4,2.5c0.2,0.4,1,1.9,0,3c-0.7,0.8-1.8,0.5-1.8,0.5c-0.1,0.4-0.1,0.6-0.1,0.6h0.8
			c0.7,0,0.8,0.8,0.8,0.8v3.3l-0.5,0.5h-1.8c0-0.8,1-1.2,1-1.2v-1.4h-1.7c-0.9-0.1-1.4-1.8-1.4-1.8l-0.7,0.1c0,0.1,0.9,1.8,0.9,1.8
			l-1.9,1.8v0.5h-2.1c-0.1-0.5,0.9-1,0.9-1l1.3-1.4c0.2-0.2,0.1-0.4-0.2-0.4c-0.3-0.1-0.5-0.1-0.7-0.3c-0.3-0.1-1.5-0.9-1-2.3
			c0.5-1.4,2.2-0.9,2.2-1c0-0.2-0.9-2.2-0.9-2.2l0.7-1.1l-0.9,0.5l-2.3-0.4c-0.2,1.9-1.1,1.4-1.1,1.4v-1.4c0,0,0-0.9,0.9-1.2
			c1-0.3,1.7-0.1,2.1-0.2c0.3-0.1,0.2-0.3,0.2-0.3l-1.3,0l-1.2-1l-0.7-0.1c-1.2-0.2-0.8-1.1-0.8-1.1s1.1,0,1.7,0
			c0.6,0,2.3,1.2,2.3,1.2s0.2-1.4-1-1.8c-1.3-0.5-1-0.9-1-0.9l1.2,0.4c0,0,0.1-0.1-0.1-0.4c-0.1-0.2-1.1-0.5-1.1-0.5
			c-0.8-0.3-0.5-0.9-0.5-0.9l1.3,0.1c0.3-0.3,0.3-0.3,0.7-0.4c0.4-0.1,1.1,0.5,1.1,0.3c-0.1-0.2-0.1-0.8-0.2-1.4
			c-0.1-0.6,1.7,2,1.7,2c2.3,4.4,1.7,7.4,1.7,7.4c1.5,0.7,1.5,2.4,1.5,1.9c0-2.5-0.8-2.3-0.8-3.9c0-1.6,1.7-1.4,1.7-1.4
			c0.7,0,0.9,0.4,0.9,0.4S39.5,22.3,39.4,22.5z"/>
		<polygon class="st0" points="32.8,17.8 31.8,17.8 32,17.5 		"/>
	</g>
	<path class="st1" d="M26.7,24.1l0-6.6l0,0c0.1-0.1,0.2-0.2,0.2-0.3c0-0.2-0.1-0.3-0.3-0.3c0,0,0,0,0,0c0,0,0,0,0,0
		c-0.2,0-0.3,0.1-0.3,0.3c0,0.1,0.1,0.2,0.2,0.3l0,0l0,6.6l-2.2,2.2V27h0.3l0-0.6l2-2.1l2,2.1l0,0.6h0.3v-0.7L26.7,24.1z"/>
</g>
<g>
	<polygon class="st2" points="26.5,1.8 26.5,3.9 28.9,1.8 	"/>
	<polygon class="st2" points="40.7,14.6 43,14.6 43,12.5 	"/>
	<polygon class="st2" points="31.3,1.8 26.5,6.1 26.5,8.2 33.6,1.8 	"/>
	<polygon class="st2" points="36,1.8 26.5,10.4 26.5,12.5 38.4,1.8 	"/>
	<polygon class="st2" points="40.7,1.8 26.5,14.6 28.9,14.6 43,1.8 	"/>
	<polygon class="st2" points="31.3,14.6 33.6,14.6 43,6.1 43,3.9 	"/>
	<polygon class="st2" points="36,14.6 38.4,14.6 43,10.4 43,8.2 	"/>
</g>
<g>
	<g>
		<path d="M62.8,29.6v-1.4c4.2-0.3,4.5-0.6,4.5-5.2V8.4c0-4.7-0.4-4.9-4.2-5.2V1.7h13.5v1.4c-4.2,0.3-4.5,0.5-4.5,5.2v14.7
			c0,2.4,0.3,3.7,1.2,4.1c0.8,0.4,2.1,0.5,4.4,0.5c2.4,0,4.3-0.4,5.3-1.6c0.7-0.7,1.5-2.2,2.1-4.2l1.6,0.2c-0.3,1.4-1.2,6.2-1.6,7.4
			H62.8z"/>
		<path d="M87,16.3C87,5.8,95,1,101.4,1c8.7,0,14.3,6.3,14.3,14.4c0,9.8-7.2,15-14.3,15C92.1,30.3,87,23,87,16.3z M101.9,28.5
			c4.7,0,8.4-3.1,8.4-11.9c0-7.1-3.4-13.7-9.4-13.7c-4.9,0-8.4,4.3-8.4,11.9C92.4,22.9,95.9,28.5,101.9,28.5z"/>
		<path d="M121.7,29.6v-1.4c4.4-0.3,4.7-0.6,4.7-5.2v-3.8c0-1.2-0.1-1.6-0.9-2.9c-1.3-2.3-3-5.2-5.7-9.9c-1.6-2.7-2-2.8-4.7-3.1V1.7
			h12.1v1.4l-1.9,0.3c-1.4,0.2-1.5,0.6-0.8,1.8c0.3,0.6,4.2,7.5,5.6,9.9c1.9-3.3,3.8-7.5,4.7-9.5c0.8-1.7,0.7-2-1-2.2L132,3.2V1.7
			h10.7v1.4c-3.3,0.3-3.5,0.7-5.1,3.2c-1.6,2.4-3.5,5.4-5.5,9c-0.9,1.7-1,2.1-1,3.1V23c0,4.6,0.4,4.9,4.8,5.2v1.4H121.7z"/>
		<path d="M141.1,16.3c0-10.5,8-15.3,14.4-15.3c8.7,0,14.3,6.3,14.3,14.4c0,9.8-7.2,15-14.3,15C146.1,30.3,141.1,23,141.1,16.3z
			 M156,28.5c4.7,0,8.4-3.1,8.4-11.9c0-7.1-3.4-13.7-9.4-13.7c-4.9,0-8.4,4.3-8.4,11.9C146.5,22.9,150,28.5,156,28.5z"/>
		<path d="M171.9,29.6v-1.4c4.2-0.3,4.5-0.6,4.5-5.2V8.4c0-4.7-0.4-4.9-4.2-5.2V1.7h13.5v1.4c-4.2,0.3-4.5,0.5-4.5,5.2v14.7
			c0,2.4,0.3,3.7,1.2,4.1c0.8,0.4,2.1,0.5,4.4,0.5c2.4,0,4.3-0.4,5.3-1.6c0.7-0.7,1.5-2.2,2.1-4.2l1.6,0.2c-0.3,1.4-1.2,6.2-1.6,7.4
			H171.9z"/>
		<path d="M213.4,28.1l1.1-0.1c1.7-0.2,2.2-0.7,1-3.6l-2.1-5.1h-8.4c-0.4,1-1.5,3.9-2.1,5.8c-0.7,2.1-0.2,2.7,1.6,2.9l1.4,0.1v1.4
			h-10.6v-1.4c2.7-0.3,3.7-0.6,5.5-4.9l9-21.9l1.5-0.4l9,23c1.5,3.7,2.6,3.9,5.3,4.1v1.4h-12.2V28.1z M205.8,17.2h7l-3.5-9.5h-0.1
			L205.8,17.2z"/>
	</g>
	<g>
		<path d="M62.8,35.2h2v5.7c0,0.6,0.1,1.1,0.2,1.4c0.2,0.5,0.7,0.8,1.5,0.8c0.8,0,1.3-0.3,1.5-0.8c0.2-0.3,0.2-0.8,0.2-1.4v-5.7h2
			v5.7c0,1-0.2,1.8-0.5,2.3c-0.6,1-1.7,1.5-3.3,1.5c-1.6,0-2.7-0.5-3.3-1.5c-0.3-0.5-0.5-1.3-0.5-2.3V35.2z"/>
		<path d="M73.8,35.2h2l3.7,6.5v-6.5h1.8v9.3h-1.9l-3.8-6.6v6.6h-1.8V35.2z"/>
		<path d="M86.6,44.5h-1.9v-9.3h1.9V44.5z"/>
		<path d="M95.5,35.2h2l-3.2,9.3h-1.8l-3.1-9.3h2.1l2,7L95.5,35.2z"/>
		<path d="M106.6,36.9h-4.9v2h4.5v1.6h-4.5v2.4h5.1v1.7h-7v-9.3h6.8V36.9z"/>
		<path d="M115.8,35.5c0.3,0.1,0.6,0.4,0.9,0.6c0.2,0.2,0.4,0.5,0.5,0.8c0.1,0.3,0.2,0.6,0.2,1c0,0.4-0.1,0.9-0.3,1.3
			c-0.2,0.4-0.6,0.7-1.1,0.9c0.4,0.2,0.7,0.4,0.9,0.7c0.2,0.3,0.3,0.8,0.3,1.4v0.6c0,0.4,0,0.7,0.1,0.9c0.1,0.2,0.2,0.4,0.4,0.5v0.2
			h-2.1c-0.1-0.2-0.1-0.4-0.1-0.5c-0.1-0.3-0.1-0.5-0.1-0.8l0-0.9c0-0.6-0.1-1-0.3-1.2c-0.2-0.2-0.6-0.3-1.1-0.3h-1.9v3.6h-1.9v-9.3
			h4.4C114.9,35.3,115.4,35.3,115.8,35.5z M111.8,36.8v2.5h2.1c0.4,0,0.7-0.1,0.9-0.2c0.4-0.2,0.6-0.5,0.6-1c0-0.6-0.2-0.9-0.5-1.1
			c-0.2-0.1-0.5-0.2-0.9-0.2H111.8z"/>
		<path d="M121.5,41.6c0.1,0.4,0.2,0.7,0.4,0.9c0.3,0.4,0.9,0.6,1.6,0.6c0.5,0,0.8-0.1,1.1-0.2c0.6-0.2,0.8-0.5,0.8-1.1
			c0-0.3-0.1-0.5-0.4-0.7c-0.3-0.2-0.7-0.3-1.3-0.4l-1-0.2c-1-0.2-1.7-0.5-2-0.7c-0.6-0.4-0.9-1.1-0.9-2c0-0.8,0.3-1.5,0.9-2.1
			c0.6-0.5,1.5-0.8,2.7-0.8c1,0,1.8,0.3,2.5,0.8c0.7,0.5,1.1,1.3,1.1,2.3h-1.9c0-0.6-0.3-1-0.7-1.2c-0.3-0.2-0.7-0.2-1.2-0.2
			c-0.5,0-0.9,0.1-1.2,0.3c-0.3,0.2-0.5,0.5-0.5,0.8c0,0.3,0.1,0.6,0.4,0.7c0.2,0.1,0.6,0.2,1.2,0.4l1.6,0.4
			c0.7,0.2,1.2,0.4,1.6,0.7c0.6,0.4,0.8,1.1,0.8,1.9c0,0.8-0.3,1.5-1,2.1c-0.7,0.6-1.6,0.8-2.8,0.8c-1.2,0-2.2-0.3-2.9-0.8
			c-0.7-0.6-1-1.3-1-2.3H121.5z"/>
		<path d="M132.2,44.5h-1.9v-9.3h1.9V44.5z"/>
		<path d="M142.7,35.2v1.6h-2.8v7.6h-1.9v-7.6h-2.8v-1.6H142.7z"/>
		<path d="M150,35.2h2.2l-3.1,5.8v3.5h-1.9V41l-3.2-5.8h2.3l1.9,4L150,35.2z"/>
		<path d="M160.3,36.2c0.7-0.8,1.7-1.1,2.8-1.1c1.5,0,2.7,0.5,3.4,1.5c0.4,0.6,0.6,1.1,0.6,1.7h-1.9c-0.1-0.4-0.3-0.8-0.5-1
			c-0.3-0.4-0.9-0.6-1.5-0.6c-0.7,0-1.2,0.3-1.6,0.9c-0.4,0.6-0.6,1.4-0.6,2.4c0,1,0.2,1.8,0.6,2.3c0.4,0.5,1,0.8,1.6,0.8
			c0.7,0,1.2-0.2,1.5-0.7c0.2-0.2,0.3-0.6,0.5-1.1h1.9c-0.2,1-0.6,1.8-1.3,2.5c-0.7,0.6-1.6,0.9-2.6,0.9c-1.3,0-2.4-0.4-3.1-1.3
			c-0.8-0.9-1.1-2-1.1-3.5C159,38.3,159.5,37.1,160.3,36.2z"/>
		<path d="M169.9,44.5v-9.3h1.9v3.5h3.6v-3.5h1.9v9.3h-1.9v-4.1h-3.6v4.1H169.9z"/>
		<path d="M182.9,44.5H181v-9.3h1.9V44.5z"/>
		<path d="M187.2,36.2c0.7-0.8,1.7-1.1,2.8-1.1c1.5,0,2.7,0.5,3.4,1.5c0.4,0.6,0.6,1.1,0.6,1.7h-1.9c-0.1-0.4-0.3-0.8-0.5-1
			c-0.3-0.4-0.9-0.6-1.5-0.6c-0.7,0-1.2,0.3-1.6,0.9c-0.4,0.6-0.6,1.4-0.6,2.4c0,1,0.2,1.8,0.6,2.3c0.4,0.5,1,0.8,1.6,0.8
			c0.7,0,1.2-0.2,1.5-0.7c0.2-0.2,0.4-0.6,0.5-1.1h1.9c-0.2,1-0.6,1.8-1.3,2.5c-0.7,0.6-1.6,0.9-2.6,0.9c-1.3,0-2.4-0.4-3.1-1.3
			c-0.8-0.9-1.1-2-1.1-3.5C185.9,38.3,186.3,37.1,187.2,36.2z"/>
		<path d="M198.6,35.2h2.2l3.3,9.3H202l-0.6-1.9H198l-0.6,1.9h-2L198.6,35.2z M198.5,41h2.4l-1.2-3.6L198.5,41z"/>
		<path d="M212.2,38.1c-0.1-0.6-0.5-1.1-1.1-1.3c-0.3-0.1-0.7-0.2-1.1-0.2c-0.7,0-1.4,0.3-1.8,0.8c-0.5,0.6-0.7,1.4-0.7,2.5
			c0,1.1,0.3,1.9,0.8,2.4c0.5,0.5,1.1,0.7,1.8,0.7c0.7,0,1.2-0.2,1.6-0.6c0.4-0.4,0.7-0.9,0.8-1.5h-2.1v-1.5h3.9v5h-1.3l-0.2-1.2
			c-0.4,0.4-0.7,0.7-1,0.9c-0.5,0.3-1.1,0.5-1.9,0.5c-1.2,0-2.2-0.4-3-1.3c-0.8-0.9-1.2-2-1.2-3.5c0-1.5,0.4-2.7,1.2-3.6
			c0.8-0.9,1.9-1.4,3.3-1.4c1.2,0,2.1,0.3,2.8,0.9c0.7,0.6,1.1,1.3,1.2,2.2H212.2z"/>
		<path d="M224.5,43.7c-0.7,0.7-1.7,1.1-3,1.1c-1.3,0-2.3-0.4-3-1.1c-0.9-0.9-1.4-2.2-1.4-3.8c0-1.7,0.5-3,1.4-3.8
			c0.7-0.7,1.7-1.1,3-1.1c1.3,0,2.3,0.4,3,1.1c0.9,0.8,1.4,2.1,1.4,3.8C225.9,41.5,225.4,42.8,224.5,43.7z M223.2,42.3
			c0.4-0.6,0.7-1.4,0.7-2.4s-0.2-1.8-0.7-2.4c-0.5-0.6-1.1-0.8-1.8-0.8c-0.8,0-1.4,0.3-1.8,0.8c-0.5,0.6-0.7,1.4-0.7,2.4
			c0,1,0.2,1.8,0.7,2.4c0.5,0.6,1.1,0.8,1.8,0.8C222.2,43.1,222.8,42.8,223.2,42.3z"/>
	</g>
</g>
</svg>
