<?xml version="1.0" encoding="utf-8"?>
<!-- Generator: Adobe Illustrator 22.0.1, SVG Export Plug-In . SVG Version: 6.00 Build 0)  -->
<svg version="1.1" id="Layer_1" xmlns="http://www.w3.org/2000/svg" xmlns:xlink="http://www.w3.org/1999/xlink" x="0px" y="0px"
	 viewBox="0 0 40 40" style="enable-background:new 0 0 40 40;" xml:space="preserve">
<style type="text/css">
	.st0{fill:#FFFFFF;}
</style>
<path class="st0" d="M39.4,35.7L25.2,21.5c1.4-2.1,2.2-4.6,2.2-7.2c0-7.3-6-13.3-13.3-13.3S0.7,6.9,0.7,14.2s6,13.3,13.3,13.3
	c2.8,0,5.3-0.8,7.5-2.3l14.2,14.2L39.4,35.7z M14,22.8c-4.8,0-8.6-3.9-8.6-8.6c0-4.8,3.9-8.6,8.6-8.6c4.8,0,8.6,3.9,8.6,8.6
	C22.6,19,18.8,22.8,14,22.8z"/>
</svg>
